<svg xmlns="http://www.w3.org/2000/svg" width="1710.145" height="500.165" viewBox="0 0 571 167">
    <defs>
        <style>
        .cls-1 {
            fill: #efefef;
            fill-rule: evenodd;
        }
        </style>
    </defs>
    <path id="Kyle_Ross_Full_Stack_Engineer" data-name="Kyle Ross Full Stack Engineer" class="cls-1" d="M40.083,45.5L71.211,6.009h-21L26.045,36.343,18.6,46.841V6.009H-0.322V95.242H18.6V63.382l8-5.737,23.377,37.6H71.455ZM98.555,94.754l-1.1,3.357q-2.076,6.1-5.768,9.125a13.229,13.229,0,0,1-8.636,3.021,31.812,31.812,0,0,1-7.324-.794v14.771a43.244,43.244,0,0,0,9.46,1.037,28.576,28.576,0,0,0,17.181-5.31q7.355-5.31,11.322-15.991L142.561,27H122.6L109.968,65.4a52.309,52.309,0,0,0-2.624,11.841h-0.366A53.318,53.318,0,0,0,104.719,65.4L91.841,27H71.455ZM170.942,0.271H152.327V95.242h18.615V0.271Zm57.19,42.45q3.48,3.754,3.6,10.651H205.61q0.489-6.9,3.846-10.651t9.277-3.754A12.193,12.193,0,0,1,228.132,42.721Zm6.775,52.551a43.725,43.725,0,0,0,10.437-3.632v-14.4a58.315,58.315,0,0,1-11.474,4.089,51.188,51.188,0,0,1-11.658,1.282q-7.935,0-12.329-4.456t-4.7-12.39h44.006V56.729q0-14.525-8.056-22.766t-22.522-8.24q-15.138,0-23.712,9.369t-8.576,26.52q0,16.663,9.278,25.757t25.756,9.094A65.8,65.8,0,0,0,234.907,95.273Zm82.276-73.761h5.737q9.155,0,13.519,2.686t4.364,9.033q0,6.409-4.272,9.4t-13.245,2.991h-6.1V21.512ZM327.253,61l21.3,34.241h21q-6.1-8.789-26.245-38.879a28.683,28.683,0,0,0,12.268-9.613,23.682,23.682,0,0,0,4.333-14.008q0-13.488-8.728-20.111T324.263,6.009h-26V95.242h18.921V61h10.07Zm70.191-15.228q3.3-5.035,10.742-5.035,7.507,0,10.8,5.066t3.3,15.2q0,10.194-3.265,15.35t-10.712,5.157q-7.507,0-10.834-5.188T394.148,61Q394.148,50.809,397.444,45.773Zm39.856-3.51A28.523,28.523,0,0,0,425.764,30a34.438,34.438,0,0,0-17.334-4.273q-15.808,0-24.536,9.277t-8.728,26a41.537,41.537,0,0,0,4.028,18.8A28.635,28.635,0,0,0,390.73,92.16a34.235,34.235,0,0,0,17.334,4.3q15.685,0,24.475-9.4T441.328,61A41.157,41.157,0,0,0,437.3,42.264Zm65.246,23.987a17.874,17.874,0,0,0-5.493-6.47,54.059,54.059,0,0,0-11.719-6.042q-8.971-3.6-11.627-5.432a5.238,5.238,0,0,1-2.655-4.333q0-4.455,8.24-4.456a30.1,30.1,0,0,1,9.094,1.4q4.455,1.4,9.583,3.6l5.615-13.428A56.75,56.75,0,0,0,479.6,25.723q-12.94,0-19.989,4.974t-7.049,14.069a21.238,21.238,0,0,0,1.678,8.942,17.172,17.172,0,0,0,5.371,6.439,55.207,55.207,0,0,0,11.566,6.1q5.493,2.32,8.789,4.059a19.454,19.454,0,0,1,4.639,3.113,4.891,4.891,0,0,1,1.343,3.571q0,5.859-10.132,5.859A47.325,47.325,0,0,1,464.369,81.2a64.827,64.827,0,0,1-11.688-4.089V92.5a47.949,47.949,0,0,0,9.826,2.96,68.532,68.532,0,0,0,12.7,1.007q14.525,0,21.82-5.493t7.293-15.991A19.882,19.882,0,0,0,502.546,66.251Zm62.134,0a17.884,17.884,0,0,0-5.493-6.47,54.084,54.084,0,0,0-11.719-6.042q-8.971-3.6-11.627-5.432a5.238,5.238,0,0,1-2.655-4.333q0-4.455,8.24-4.456a30.1,30.1,0,0,1,9.094,1.4q4.455,1.4,9.583,3.6l5.615-13.428a56.753,56.753,0,0,0-23.987-5.371q-12.94,0-19.989,4.974t-7.05,14.069a21.237,21.237,0,0,0,1.679,8.942,17.172,17.172,0,0,0,5.371,6.439,55.18,55.18,0,0,0,11.566,6.1q5.493,2.32,8.789,4.059a19.5,19.5,0,0,1,4.639,3.113,4.9,4.9,0,0,1,1.343,3.571q0,5.859-10.132,5.859A47.325,47.325,0,0,1,526.5,81.2a64.838,64.838,0,0,1-11.689-4.089V92.5a47.978,47.978,0,0,0,9.827,2.96,68.528,68.528,0,0,0,12.7,1.007q14.526,0,21.82-5.493t7.294-15.991A19.882,19.882,0,0,0,564.68,66.251ZM143.818,139.983h14.795V136.3H143.818V123.235h15.747v-3.686h-19.9v35.693h4.15V139.983Zm20.752-11.5v17.5q0,5.1,2.43,7.422t7.312,2.319a11.624,11.624,0,0,0,5.041-1.049,8.076,8.076,0,0,0,3.455-3.028h0.219l0.586,3.589h3.345V128.484h-4.053v14.063q0,5.2-1.941,7.5t-6.14,2.295a6.068,6.068,0,0,1-4.663-1.611,6.985,6.985,0,0,1-1.489-4.883V128.484h-4.1Zm35.034-11.23h-4.052v37.988H199.6V117.254Zm12.647,0H208.2v37.988h4.053V117.254Zm40.222,22.534q-2.112-2.3-7.727-4.3a28.616,28.616,0,0,1-4.968-2.185,6.418,6.418,0,0,1-2.307-2.173,6.018,6.018,0,0,1-.684-3.039,4.665,4.665,0,0,1,1.856-3.931,8.314,8.314,0,0,1,5.151-1.416,22.127,22.127,0,0,1,8.594,1.856l1.294-3.614a24.179,24.179,0,0,0-9.79-1.953,12.885,12.885,0,0,0-8.2,2.442,7.924,7.924,0,0,0-3.1,6.567,9.323,9.323,0,0,0,2.136,6.372q2.136,2.442,7.117,4.224a34.866,34.866,0,0,1,5.31,2.27,6.938,6.938,0,0,1,2.49,2.185,5.632,5.632,0,0,1,.745,3.04,5.167,5.167,0,0,1-2.1,4.382q-2.1,1.575-6.25,1.575a25.178,25.178,0,0,1-5.127-.537,25.675,25.675,0,0,1-4.785-1.465v4q3.418,1.635,9.766,1.635,5.859,0,9.277-2.636a8.757,8.757,0,0,0,3.418-7.349A8.451,8.451,0,0,0,252.473,139.788Zm14.295,11.3a5.414,5.414,0,0,1-1.148-3.711V131.634h7.764v-3.15H265.62v-6.2h-2.344L261.567,128l-3.833,1.685v1.953h3.833v15.918q0,8.178,7.764,8.178a14.6,14.6,0,0,0,2.307-.207,7.407,7.407,0,0,0,1.941-.525v-3.1a14.411,14.411,0,0,1-3.662.489A3.989,3.989,0,0,1,266.768,151.092Zm31.616,4.15V136.98q0-4.687-2.307-6.811t-7.093-2.124a18.809,18.809,0,0,0-4.724.61,19.039,19.039,0,0,0-4.333,1.685l1.245,3.1a17.653,17.653,0,0,1,7.568-2.05,5.574,5.574,0,0,1,4.334,1.5,6.785,6.785,0,0,1,1.355,4.651v1.66l-4.541.147q-12.964.39-12.964,8.5a7.479,7.479,0,0,0,2.258,5.835,8.937,8.937,0,0,0,6.238,2.05,12.171,12.171,0,0,0,4.968-.891,11.26,11.26,0,0,0,3.992-3.405h0.195l0.806,3.808h3Zm-15.882-4a4.175,4.175,0,0,1-1.33-3.344,4.53,4.53,0,0,1,2.136-4.139q2.136-1.331,6.97-1.5l4.053-.171V144.5a7.677,7.677,0,0,1-2.161,5.811,8.226,8.226,0,0,1-5.944,2.075A5.518,5.518,0,0,1,282.5,151.238Zm41.687,3.1V150.75a18.007,18.007,0,0,1-6.86,1.44,6.921,6.921,0,0,1-5.9-2.636q-1.99-2.637-1.99-7.569,0-10.4,8.155-10.4a13.082,13.082,0,0,1,2.807.354,19.06,19.06,0,0,1,2.93.891l1.245-3.442a12.692,12.692,0,0,0-3.027-.977A18.34,18.34,0,0,0,317.7,128q-5.982,0-9.216,3.662t-3.235,10.376q0,6.543,3.186,10.12t9,3.576a14.614,14.614,0,0,0,6.762-1.391h0Zm10.157-12.793q0.195-2.808.195-4.15V117.254h-4v37.988h4v-10.01l3.052-2.636,9.448,12.646h4.907l-11.6-15.356,10.839-11.4h-4.809l-8.643,9.156a47.657,47.657,0,0,0-3.2,3.906h-0.195Zm55.932,9.985H374.531V138.4h14.8v-3.662h-14.8v-11.5h15.747v-3.686h-19.9v35.693h19.9v-3.711Zm29.663,3.711V137.786q0-5.127-2.441-7.458T410.225,128a11.331,11.331,0,0,0-5,1.087,8.269,8.269,0,0,0-3.491,3.063h-0.2l-0.659-3.662h-3.3v26.758h4.053V141.2q0-5.225,1.953-7.5t6.152-2.271a6.068,6.068,0,0,1,4.663,1.612,6.983,6.983,0,0,1,1.49,4.883v17.309h4.052Zm20.972-26.758a13.6,13.6,0,0,0-3.784-.488q-4.835,0-7.471,2.38a8.659,8.659,0,0,0-2.637,6.775,8.537,8.537,0,0,0,1.307,4.688,7.217,7.217,0,0,0,3.381,2.905,8.229,8.229,0,0,0-2.466,2.124,4.31,4.31,0,0,0-.781,2.564,3.809,3.809,0,0,0,.7,2.27,4.237,4.237,0,0,0,1.721,1.441,7.958,7.958,0,0,0-4.4,2.417,6.2,6.2,0,0,0-1.562,4.223,6.308,6.308,0,0,0,2.844,5.518q2.844,1.953,8.093,1.953,6.836,0,10.4-2.332a7.6,7.6,0,0,0,3.564-6.775,6.363,6.363,0,0,0-2.331-5.322q-2.333-1.831-6.678-1.831h-4.736a6.591,6.591,0,0,1-3.1-.525,1.748,1.748,0,0,1-.9-1.623q0-2.076,2.588-3.443a12.211,12.211,0,0,0,2.246.2,10.835,10.835,0,0,0,7.373-2.344,7.913,7.913,0,0,0,2.686-6.275,8.7,8.7,0,0,0-1.758-5.346l4.956-.586v-2.564h-9.253ZM430.366,155.95a6.4,6.4,0,0,1,4.3-1.318h4.858q3.711,0,5.054.842a3.275,3.275,0,0,1,1.343,3.015,4.671,4.671,0,0,1-2.454,4.138q-2.452,1.525-7.556,1.526a10.1,10.1,0,0,1-5.249-1.123,3.631,3.631,0,0,1-1.831-3.3A4.711,4.711,0,0,1,430.366,155.95Zm2.2-23.462a5.95,5.95,0,0,1,4.4-1.538q6.006,0,6.006,6.03,0,5.763-5.933,5.762a6.338,6.338,0,0,1-4.419-1.44,5.447,5.447,0,0,1-1.587-4.248A6.2,6.2,0,0,1,432.563,132.488Zm27.149-4h-4.053v26.758h4.053V128.484ZM456,123.272a2.337,2.337,0,0,0,1.709.671,2.365,2.365,0,0,0,1.685-.671,2.688,2.688,0,0,0,.708-2.039,2.646,2.646,0,0,0-.708-2.026A2.531,2.531,0,0,0,456,119.2a2.69,2.69,0,0,0-.684,2.038A2.74,2.74,0,0,0,456,123.272Zm34.668,31.97V137.786q0-5.127-2.441-7.458T480.952,128a11.337,11.337,0,0,0-5,1.087,8.275,8.275,0,0,0-3.491,3.063h-0.195l-0.659-3.662h-3.3v26.758h4.052V141.2q0-5.225,1.954-7.5t6.152-2.271a6.069,6.069,0,0,1,4.663,1.612,6.983,6.983,0,0,1,1.489,4.883v17.309h4.053Zm24.255,0.086A21.432,21.432,0,0,0,518.989,154v-3.613a21.559,21.559,0,0,1-8.545,1.806,8.233,8.233,0,0,1-6.36-2.441q-2.257-2.44-2.38-7.153h18.433v-2.564a12.681,12.681,0,0,0-2.93-8.728A10.092,10.092,0,0,0,509.248,128a10.583,10.583,0,0,0-8.557,3.809q-3.186,3.808-3.186,10.278,0,6.422,3.43,10.034t9.363,3.613A22.892,22.892,0,0,0,514.924,155.328Zm-0.842-21.9a8.914,8.914,0,0,1,1.709,5.872H501.8a9.673,9.673,0,0,1,2.258-5.811,6.621,6.621,0,0,1,5.139-2.1A6.015,6.015,0,0,1,514.082,133.428Zm28.894,21.9A21.432,21.432,0,0,0,547.041,154v-3.613a21.559,21.559,0,0,1-8.545,1.806,8.233,8.233,0,0,1-6.36-2.441q-2.257-2.44-2.38-7.153h18.432v-2.564a12.681,12.681,0,0,0-2.929-8.728A10.092,10.092,0,0,0,537.3,128a10.583,10.583,0,0,0-8.557,3.809q-3.186,3.808-3.186,10.278,0,6.422,3.43,10.034t9.363,3.613A22.892,22.892,0,0,0,542.976,155.328Zm-0.842-21.9a8.914,8.914,0,0,1,1.709,5.872H529.854a9.673,9.673,0,0,1,2.258-5.811,6.62,6.62,0,0,1,5.139-2.1A6.016,6.016,0,0,1,542.134,133.428Zm20.556-4.016a11.753,11.753,0,0,0-3.588,4.028h-0.2l-0.464-4.956H555.1v26.758h4.052V140.887a9.611,9.611,0,0,1,2.308-6.568,7.132,7.132,0,0,1,5.554-2.636,13.811,13.811,0,0,1,2.929.366l0.562-3.76a15.879,15.879,0,0,0-3.2-.293A8.081,8.081,0,0,0,562.69,129.412Z"/>
</svg>
